<svg width="251" height="61" viewBox="0 0 251 61" fill="none" xmlns="http://www.w3.org/2000/svg">
<rect width="251" height="61" fill="white"/>
<path d="M42.062 61L25.688 0H41.564L48.256 32.556L53.792 0H69.452L53.076 61H42.062ZM82.176 61H69.204L85.58 0H98.552L82.176 61ZM124.624 61L121.232 49.332H101.444L98.052 61H84.776L104.988 0H117.848L137.904 61H124.624ZM111.388 13.908L104.38 38.652H118.296L111.388 13.908ZM164.73 61L155.826 27.576L146.922 61H134.45L150.326 0H160.774L165.754 18.792L170.83 0H181.278L197.154 61H184.682L175.778 27.576L166.874 61H164.73ZM221.053 61L217.661 49.332H197.873L194.481 61H181.205L201.417 0H214.277L234.333 61H221.053ZM207.817 13.908L200.809 38.652H214.725L207.817 13.908ZM242.058 61H229.086L245.462 0H258.434L242.058 61Z" fill="#000"/>
</svg>
